<svg width="44" height="44" viewBox="0 0 44 44" fill="none" xmlns="http://www.w3.org/2000/svg">
<path d="M0 22C0 9.84974 9.84974 0 22 0C34.1503 0 44 9.84974 44 22C44 34.1503 34.1503 44 22 44C9.84974 44 0 34.1503 0 22Z" fill="#CB30E0" fill-opacity="0.1"/>
<path d="M22 23C24.7614 23 27 20.7614 27 18C27 15.2386 24.7614 13 22 13C19.2386 13 17 15.2386 17 18C17 20.7614 19.2386 23 22 23Z" stroke="#CB30E0" stroke-width="2" stroke-linecap="round" stroke-linejoin="round"/>
<path d="M30 31C30 28.8783 29.1571 26.8434 27.6569 25.3431C26.1566 23.8429 24.1217 23 22 23C19.8783 23 17.8434 23.8429 16.3431 25.3431C14.8429 26.8434 14 28.8783 14 31" stroke="#CB30E0" stroke-width="2" stroke-linecap="round" stroke-linejoin="round"/>
</svg>
