<svg width="217" height="80" viewBox="0 0 217 80" fill="none" xmlns="http://www.w3.org/2000/svg">
<mask id="path-1-inside-1_99_3462" fill="white">
<path d="M0 0H217V80H0V0Z"/>
</mask>
<path d="M217 80V79H0V80V81H217V80Z" fill="black" fill-opacity="0.1" mask="url(#path-1-inside-1_99_3462)"/>
<path d="M48.0115 27.102V47.5H43.8395V35.768C43.8395 35.4973 43.8441 35.2033 43.8535 34.886C43.8721 34.5687 43.9001 34.2467 43.9375 33.92L38.5195 44.406C38.3515 44.7327 38.1228 44.98 37.8335 45.148C37.5535 45.316 37.2315 45.4 36.8675 45.4H36.2235C35.8595 45.4 35.5328 45.316 35.2435 45.148C34.9635 44.98 34.7395 44.7327 34.5715 44.406L29.1535 33.892C29.1815 34.228 29.2048 34.5593 29.2235 34.886C29.2421 35.2033 29.2515 35.4973 29.2515 35.768V47.5H25.0795V27.102H28.6915C28.8968 27.102 29.0741 27.1067 29.2235 27.116C29.3821 27.1253 29.5221 27.1533 29.6435 27.2C29.7648 27.2467 29.8721 27.3213 29.9655 27.424C30.0681 27.5173 30.1661 27.6527 30.2595 27.83L35.5095 38.176C35.6961 38.5307 35.8735 38.8993 36.0415 39.282C36.2188 39.6647 36.3868 40.0567 36.5455 40.458C36.7041 40.0473 36.8675 39.646 37.0355 39.254C37.2128 38.862 37.3995 38.4887 37.5955 38.134L42.8315 27.83C42.9248 27.6527 43.0181 27.5173 43.1115 27.424C43.2141 27.3213 43.3261 27.2467 43.4475 27.2C43.5688 27.1533 43.7041 27.1253 43.8535 27.116C44.0121 27.1067 44.1941 27.102 44.3995 27.102H48.0115ZM59.1544 37.112C60.3864 37.112 61.273 36.818 61.8144 36.23C62.3557 35.642 62.6264 34.8207 62.6264 33.766C62.6264 33.2993 62.5564 32.8747 62.4164 32.492C62.2764 32.1093 62.0617 31.7827 61.7724 31.512C61.4924 31.232 61.133 31.0173 60.6944 30.868C60.265 30.7187 59.7517 30.644 59.1544 30.644H56.6904V37.112H59.1544ZM59.1544 27.102C60.5917 27.102 61.8237 27.2747 62.8504 27.62C63.8864 27.956 64.7357 28.4227 65.3984 29.02C66.0704 29.6173 66.565 30.322 66.8824 31.134C67.1997 31.946 67.3584 32.8233 67.3584 33.766C67.3584 34.7833 67.195 35.7167 66.8684 36.566C66.5417 37.4153 66.0424 38.1433 65.3704 38.75C64.6984 39.3567 63.8444 39.8327 62.8084 40.178C61.7817 40.514 60.5637 40.682 59.1544 40.682H56.6904V47.5H51.9584V27.102H59.1544ZM73.1238 35.222C73.5718 34.438 74.0851 33.822 74.6637 33.374C75.2518 32.926 75.9238 32.702 76.6798 32.702C77.3331 32.702 77.8651 32.856 78.2758 33.164L77.9958 36.356C77.9491 36.5613 77.8698 36.7013 77.7578 36.776C77.6551 36.8507 77.5104 36.888 77.3238 36.888C77.2491 36.888 77.1511 36.8833 77.0298 36.874C76.9084 36.8647 76.7824 36.8553 76.6518 36.846C76.5211 36.8273 76.3858 36.8133 76.2458 36.804C76.1151 36.7853 75.9938 36.776 75.8818 36.776C75.2471 36.776 74.7384 36.944 74.3558 37.28C73.9824 37.616 73.6651 38.0827 73.4038 38.68V47.5H69.0638V32.982H71.6398C71.8544 32.982 72.0318 33.0007 72.1718 33.038C72.3211 33.0753 72.4424 33.136 72.5358 33.22C72.6384 33.2947 72.7131 33.3973 72.7598 33.528C72.8158 33.6587 72.8624 33.8173 72.8998 34.004L73.1238 35.222ZM87.1084 41.592C86.2404 41.6293 85.5264 41.704 84.9664 41.816C84.4064 41.928 83.9631 42.068 83.6364 42.236C83.3098 42.404 83.0811 42.5953 82.9504 42.81C82.8291 43.0247 82.7684 43.258 82.7684 43.51C82.7684 44.0047 82.9038 44.3547 83.1744 44.56C83.4451 44.756 83.8418 44.854 84.3644 44.854C84.9244 44.854 85.4144 44.756 85.8344 44.56C86.2544 44.364 86.6791 44.0467 87.1084 43.608V41.592ZM79.2964 34.998C80.1738 34.2233 81.1444 33.6493 82.2084 33.276C83.2818 32.8933 84.4298 32.702 85.6524 32.702C86.5298 32.702 87.3184 32.8467 88.0184 33.136C88.7278 33.416 89.3251 33.8127 89.8104 34.326C90.3051 34.83 90.6831 35.432 90.9444 36.132C91.2058 36.832 91.3364 37.5973 91.3364 38.428V47.5H89.3484C88.9378 47.5 88.6251 47.444 88.4104 47.332C88.2051 47.22 88.0324 46.9867 87.8924 46.632L87.5844 45.834C87.2204 46.142 86.8704 46.4127 86.5344 46.646C86.1984 46.8793 85.8484 47.08 85.4844 47.248C85.1298 47.4067 84.7471 47.5233 84.3364 47.598C83.9351 47.682 83.4871 47.724 82.9924 47.724C82.3298 47.724 81.7278 47.64 81.1864 47.472C80.6451 47.2947 80.1831 47.038 79.8004 46.702C79.4271 46.366 79.1378 45.9507 78.9324 45.456C78.7271 44.952 78.6244 44.3733 78.6244 43.72C78.6244 43.1973 78.7551 42.67 79.0164 42.138C79.2778 41.5967 79.7304 41.1067 80.3744 40.668C81.0184 40.22 81.8864 39.8467 82.9784 39.548C84.0704 39.2493 85.4471 39.0813 87.1084 39.044V38.428C87.1084 37.5787 86.9311 36.9673 86.5764 36.594C86.2311 36.2113 85.7364 36.02 85.0924 36.02C84.5791 36.02 84.1591 36.076 83.8324 36.188C83.5058 36.3 83.2118 36.426 82.9504 36.566C82.6984 36.706 82.4511 36.832 82.2084 36.944C81.9658 37.056 81.6764 37.112 81.3404 37.112C81.0418 37.112 80.7898 37.0373 80.5844 36.888C80.3791 36.7387 80.2111 36.5613 80.0804 36.356L79.2964 34.998ZM100.923 36.692C101.567 36.692 102.113 36.6127 102.561 36.454C103.018 36.286 103.391 36.0573 103.681 35.768C103.97 35.4787 104.18 35.1427 104.311 34.76C104.441 34.368 104.507 33.948 104.507 33.5C104.507 32.604 104.213 31.904 103.625 31.4C103.046 30.896 102.145 30.644 100.923 30.644H99.0185V36.692H100.923ZM110.975 47.5H106.691C105.897 47.5 105.328 47.2013 104.983 46.604L101.595 40.682C101.436 40.43 101.259 40.248 101.062 40.136C100.867 40.0147 100.587 39.954 100.222 39.954H99.0185V47.5H94.2865V27.102H100.923C102.397 27.102 103.653 27.256 104.689 27.564C105.734 27.8627 106.583 28.2827 107.237 28.824C107.899 29.3653 108.38 30.0047 108.679 30.742C108.977 31.4793 109.127 32.282 109.127 33.15C109.127 33.8127 109.038 34.438 108.861 35.026C108.683 35.614 108.422 36.16 108.077 36.664C107.731 37.1587 107.302 37.602 106.789 37.994C106.285 38.386 105.701 38.708 105.039 38.96C105.347 39.1187 105.636 39.3193 105.907 39.562C106.177 39.7953 106.42 40.0753 106.635 40.402L110.975 47.5ZM126.365 37.112C127.597 37.112 128.484 36.818 129.025 36.23C129.567 35.642 129.837 34.8207 129.837 33.766C129.837 33.2993 129.767 32.8747 129.627 32.492C129.487 32.1093 129.273 31.7827 128.983 31.512C128.703 31.232 128.344 31.0173 127.905 30.868C127.476 30.7187 126.963 30.644 126.365 30.644H123.901V37.112H126.365ZM126.365 27.102C127.803 27.102 129.035 27.2747 130.061 27.62C131.097 27.956 131.947 28.4227 132.609 29.02C133.281 29.6173 133.776 30.322 134.093 31.134C134.411 31.946 134.569 32.8233 134.569 33.766C134.569 34.7833 134.406 35.7167 134.079 36.566C133.753 37.4153 133.253 38.1433 132.581 38.75C131.909 39.3567 131.055 39.8327 130.019 40.178C128.993 40.514 127.775 40.682 126.365 40.682H123.901V47.5H119.169V27.102H126.365ZM142.584 32.758C143.685 32.758 144.689 32.9307 145.594 33.276C146.499 33.6213 147.274 34.116 147.918 34.76C148.571 35.404 149.075 36.188 149.43 37.112C149.794 38.0267 149.976 39.058 149.976 40.206C149.976 41.3633 149.794 42.4087 149.43 43.342C149.075 44.266 148.571 45.0547 147.918 45.708C147.274 46.352 146.499 46.8513 145.594 47.206C144.689 47.5513 143.685 47.724 142.584 47.724C141.473 47.724 140.461 47.5513 139.546 47.206C138.641 46.8513 137.857 46.352 137.194 45.708C136.541 45.0547 136.032 44.266 135.668 43.342C135.313 42.4087 135.136 41.3633 135.136 40.206C135.136 39.058 135.313 38.0267 135.668 37.112C136.032 36.188 136.541 35.404 137.194 34.76C137.857 34.116 138.641 33.6213 139.546 33.276C140.461 32.9307 141.473 32.758 142.584 32.758ZM142.584 44.504C143.583 44.504 144.315 44.154 144.782 43.454C145.258 42.7447 145.496 41.6713 145.496 40.234C145.496 38.7967 145.258 37.728 144.782 37.028C144.315 36.328 143.583 35.978 142.584 35.978C141.557 35.978 140.806 36.328 140.33 37.028C139.854 37.728 139.616 38.7967 139.616 40.234C139.616 41.6713 139.854 42.7447 140.33 43.454C140.806 44.154 141.557 44.504 142.584 44.504ZM156.221 35.222C156.669 34.438 157.183 33.822 157.761 33.374C158.349 32.926 159.021 32.702 159.777 32.702C160.431 32.702 160.963 32.856 161.373 33.164L161.093 36.356C161.047 36.5613 160.967 36.7013 160.855 36.776C160.753 36.8507 160.608 36.888 160.421 36.888C160.347 36.888 160.249 36.8833 160.127 36.874C160.006 36.8647 159.88 36.8553 159.749 36.846C159.619 36.8273 159.483 36.8133 159.343 36.804C159.213 36.7853 159.091 36.776 158.979 36.776C158.345 36.776 157.836 36.944 157.453 37.28C157.08 37.616 156.763 38.0827 156.501 38.68V47.5H152.161V32.982H154.737C154.952 32.982 155.129 33.0007 155.269 33.038C155.419 33.0753 155.54 33.136 155.633 33.22C155.736 33.2947 155.811 33.3973 155.857 33.528C155.913 33.6587 155.96 33.8173 155.997 34.004L156.221 35.222ZM168.047 47.724C167.356 47.724 166.745 47.626 166.213 47.43C165.69 47.2247 165.247 46.94 164.883 46.576C164.528 46.2027 164.257 45.7547 164.071 45.232C163.884 44.7093 163.791 44.126 163.791 43.482V35.978H162.559C162.335 35.978 162.143 35.908 161.985 35.768C161.826 35.6187 161.747 35.404 161.747 35.124V33.43L164.057 32.982L164.911 29.44C165.023 28.992 165.34 28.768 165.863 28.768H168.131V33.01H171.729V35.978H168.131V43.188C168.131 43.524 168.21 43.804 168.369 44.028C168.537 44.2427 168.775 44.35 169.083 44.35C169.241 44.35 169.372 44.336 169.475 44.308C169.587 44.2707 169.68 44.2333 169.755 44.196C169.839 44.1493 169.913 44.112 169.979 44.084C170.053 44.0467 170.137 44.028 170.231 44.028C170.361 44.028 170.464 44.0607 170.539 44.126C170.623 44.182 170.707 44.2753 170.791 44.406L172.107 46.464C171.547 46.884 170.917 47.2013 170.217 47.416C169.517 47.6213 168.793 47.724 168.047 47.724ZM181.089 41.592C180.221 41.6293 179.507 41.704 178.947 41.816C178.387 41.928 177.944 42.068 177.617 42.236C177.29 42.404 177.062 42.5953 176.931 42.81C176.81 43.0247 176.749 43.258 176.749 43.51C176.749 44.0047 176.884 44.3547 177.155 44.56C177.426 44.756 177.822 44.854 178.345 44.854C178.905 44.854 179.395 44.756 179.815 44.56C180.235 44.364 180.66 44.0467 181.089 43.608V41.592ZM173.277 34.998C174.154 34.2233 175.125 33.6493 176.189 33.276C177.262 32.8933 178.41 32.702 179.633 32.702C180.51 32.702 181.299 32.8467 181.999 33.136C182.708 33.416 183.306 33.8127 183.791 34.326C184.286 34.83 184.664 35.432 184.925 36.132C185.186 36.832 185.317 37.5973 185.317 38.428V47.5H183.329C182.918 47.5 182.606 47.444 182.391 47.332C182.186 47.22 182.013 46.9867 181.873 46.632L181.565 45.834C181.201 46.142 180.851 46.4127 180.515 46.646C180.179 46.8793 179.829 47.08 179.465 47.248C179.11 47.4067 178.728 47.5233 178.317 47.598C177.916 47.682 177.468 47.724 176.973 47.724C176.31 47.724 175.708 47.64 175.167 47.472C174.626 47.2947 174.164 47.038 173.781 46.702C173.408 46.366 173.118 45.9507 172.913 45.456C172.708 44.952 172.605 44.3733 172.605 43.72C172.605 43.1973 172.736 42.67 172.997 42.138C173.258 41.5967 173.711 41.1067 174.355 40.668C174.999 40.22 175.867 39.8467 176.959 39.548C178.051 39.2493 179.428 39.0813 181.089 39.044V38.428C181.089 37.5787 180.912 36.9673 180.557 36.594C180.212 36.2113 179.717 36.02 179.073 36.02C178.56 36.02 178.14 36.076 177.813 36.188C177.486 36.3 177.192 36.426 176.931 36.566C176.679 36.706 176.432 36.832 176.189 36.944C175.946 37.056 175.657 37.112 175.321 37.112C175.022 37.112 174.77 37.0373 174.565 36.888C174.36 36.7387 174.192 36.5613 174.061 36.356L173.277 34.998ZM192.431 26.542V47.5H188.091V26.542H192.431Z" fill="black"/>
</svg>
