<svg width="48" height="48" viewBox="0 0 48 48" fill="none" xmlns="http://www.w3.org/2000/svg">
<path d="M0 24C0 10.7452 10.7452 0 24 0C37.2548 0 48 10.7452 48 24C48 37.2548 37.2548 48 24 48C10.7452 48 0 37.2548 0 24Z" fill="#F0FDF4"/>
<path d="M30 33C30 30.8783 29.1571 28.8434 27.6569 27.3431C26.1566 25.8429 24.1217 25 22 25C19.8783 25 17.8434 25.8429 16.3431 27.3431C14.8429 28.8434 14 30.8783 14 33" stroke="#34C759" stroke-width="2" stroke-linecap="round" stroke-linejoin="round"/>
<path d="M22 25C24.7614 25 27 22.7614 27 20C27 17.2386 24.7614 15 22 15C19.2386 15 17 17.2386 17 20C17 22.7614 19.2386 25 22 25Z" stroke="#34C759" stroke-width="2" stroke-linecap="round" stroke-linejoin="round"/>
<path d="M34.0008 32.0002C34.0008 28.6302 32.0008 25.5002 30.0008 24.0002C30.6582 23.507 31.1839 22.8593 31.5313 22.1145C31.8788 21.3696 32.0373 20.5507 31.9928 19.73C31.9483 18.9093 31.7022 18.1123 31.2763 17.4094C30.8503 16.7065 30.2577 16.1195 29.5508 15.7002" stroke="#34C759" stroke-width="2" stroke-linecap="round" stroke-linejoin="round"/>
</svg>
