<svg width="26" height="26" viewBox="0 0 26 26" fill="none" xmlns="http://www.w3.org/2000/svg">
<path fill-rule="evenodd" clip-rule="evenodd" d="M6.79839 9.37304C6.98462 9.19386 7.23438 9.09595 7.49277 9.10083C7.75116 9.1057 7.99704 9.21296 8.17639 9.39904L12.9994 14.5184L17.8224 9.39904C17.9101 9.30239 18.0162 9.22432 18.1346 9.16946C18.253 9.1146 18.3812 9.08406 18.5116 9.07966C18.642 9.07525 18.772 9.09707 18.8938 9.14381C19.0157 9.19056 19.1269 9.26128 19.2209 9.35179C19.3148 9.4423 19.3897 9.55076 19.441 9.67073C19.4923 9.79071 19.519 9.91976 19.5195 10.0502C19.5201 10.1807 19.4944 10.31 19.444 10.4304C19.3937 10.5507 19.3197 10.6598 19.2264 10.751L13.7014 16.601C13.6104 16.6954 13.5014 16.7705 13.3808 16.8217C13.2602 16.873 13.1304 16.8994 12.9994 16.8994C12.8683 16.8994 12.7386 16.873 12.618 16.8217C12.4974 16.7705 12.3883 16.6954 12.2974 16.601L6.77239 10.751C6.59321 10.5648 6.4953 10.315 6.50017 10.0567C6.50505 9.79827 6.61231 9.55238 6.79839 9.37304Z" fill="black" fill-opacity="0.54"/>
</svg>
